<svg version="1.1" id="Layer_1" xmlns="http://www.w3.org/2000/svg" xmlns:xlink="http://www.w3.org/1999/xlink" x="0px" y="0px"
	 width="100%" viewBox="0 0 270 270" enable-background="new 0 0 270 270" xml:space="preserve">
<path fill="#FCFCFC" opacity="1.000000" stroke="none" 
	d="
M157.000000,271.000000 
	C104.666664,271.000000 52.833332,271.000000 1.000000,271.000000 
	C1.000000,181.000000 1.000000,91.000000 1.000000,1.000000 
	C91.000000,1.000000 181.000000,1.000000 271.000000,1.000000 
	C271.000000,91.000000 271.000000,181.000000 271.000000,271.000000 
	C233.166672,271.000000 195.333328,271.000000 157.000000,271.000000 
M222.021942,20.319954 
	C221.705246,20.035355 221.388550,19.750755 220.588425,19.011410 
	C215.638321,14.625555 211.088425,11.478265 203.379272,14.377401 
	C197.189545,16.705124 194.427856,20.730431 193.138199,25.928881 
	C191.381531,33.009888 194.414948,38.844238 199.862381,42.121426 
	C201.066635,42.845898 202.728317,44.135239 202.779892,45.230392 
	C203.064743,51.278381 202.916168,57.346779 202.916168,63.585770 
	C197.899719,61.566624 193.257019,60.042152 188.928635,57.886585 
	C178.824768,52.854797 168.044495,50.895588 156.521988,49.689861 
	C143.285904,45.956547 129.840408,47.194695 116.422081,48.091881 
	C115.697495,48.140331 115.040108,49.193832 113.644997,49.271862 
	C104.076256,50.389317 94.583221,51.692993 85.700836,55.874001 
	C81.110062,58.034916 76.241058,59.602127 71.512016,61.473602 
	C70.208389,61.989502 68.956024,62.634911 67.165558,63.457226 
	C67.165558,58.441109 67.210304,54.148994 67.148582,49.858410 
	C67.112221,47.331310 67.697456,45.714024 69.860168,43.660648 
	C73.243080,40.448776 77.711838,37.717327 78.151718,31.875336 
	C79.108162,19.173018 69.690826,12.107437 57.274311,14.235670 
	C52.111012,15.120678 46.517849,20.555149 45.737625,25.203821 
	C44.022999,35.419781 46.186672,39.780807 56.020000,46.944588 
	C56.053661,55.624249 56.087322,64.303909 55.935555,73.333122 
	C55.935555,73.333122 55.926613,73.728706 55.395287,73.987457 
	C55.160275,74.298744 54.925266,74.610039 54.196331,75.120880 
	C53.775463,75.676361 53.354595,76.231850 52.482582,77.041267 
	C52.304317,77.327873 52.126049,77.614471 51.372334,78.256706 
	C44.111561,87.792091 38.213486,97.892380 36.775478,110.161522 
	C36.420788,113.187729 35.280544,116.025192 30.739956,116.223679 
	C26.924625,116.390457 23.185631,118.449356 21.303373,123.214615 
	C20.504824,124.950188 19.055353,126.669960 19.012800,128.423874 
	C18.725056,140.283737 18.607723,152.152405 18.756044,164.014221 
	C18.785633,166.380539 20.197880,168.729599 21.168665,171.753693 
	C24.078148,177.914612 29.831184,178.783813 35.376110,179.498123 
	C39.704739,208.058411 54.504887,228.030319 82.843079,238.049088 
	C92.554855,238.931717 102.253014,240.319534 111.981514,240.581757 
	C127.617378,241.003204 143.273285,240.680786 159.542923,241.071777 
	C162.624283,243.310059 165.685776,245.576294 168.790878,247.781158 
	C176.781219,253.455002 184.697510,259.241180 192.839355,264.689606 
	C196.037506,266.829773 199.652023,267.681427 201.991226,261.990509 
	C202.082336,251.667587 202.173447,241.344681 202.901962,230.832733 
	C220.342453,217.844894 232.828629,201.706329 235.463287,179.407410 
	C246.505463,178.679443 251.252228,174.402023 252.924957,163.040573 
	C252.856430,153.113190 252.893860,143.183151 252.644699,133.260300 
	C252.582581,130.785904 251.595917,128.334732 250.997421,125.114769 
	C249.733429,115.918198 240.939911,116.879601 235.099670,112.705940 
	C232.007889,102.286011 229.185532,90.843864 221.142990,81.680496 
	C218.661179,78.852844 216.547195,75.702377 214.406448,71.812279 
	C214.644012,62.549122 214.881577,53.285965 215.808380,44.017334 
	C217.884979,42.056801 219.961578,40.096268 222.569061,37.797623 
	C222.785263,37.216076 223.001465,36.634525 223.097992,36.037247 
	C223.097992,36.037247 223.110825,36.157265 223.719437,35.678406 
	C225.239685,31.319265 225.934448,26.998558 223.129745,22.964544 
	C223.129745,22.964544 223.247391,22.926437 223.155167,22.304174 
	C222.806763,21.812809 222.458359,21.321444 222.068268,20.941488 
	C222.068268,20.941488 222.186157,20.957399 222.021942,20.319954 
z"/>
<path fill="#42749D" opacity="1.000000" stroke="none" 
	d="
M82.065262,237.844574 
	C54.504887,228.030319 39.704739,208.058411 35.376110,179.498123 
	C29.831184,178.783813 24.078148,177.914612 21.088959,170.952026 
	C20.129108,154.381088 19.290068,138.612671 21.974302,122.916237 
	C23.185631,118.449356 26.924625,116.390457 30.739956,116.223679 
	C35.280544,116.025192 36.420788,113.187729 36.775478,110.161522 
	C38.213486,97.892380 44.111561,87.792091 51.821293,78.256912 
	C52.491409,77.767197 52.712570,77.277260 52.933731,76.787331 
	C53.354595,76.231850 53.775463,75.676361 54.733913,74.923737 
	C55.489868,74.393967 55.708241,74.061333 55.926613,73.728706 
	C55.926613,73.728706 55.935555,73.333122 56.415466,73.061722 
	C57.241447,72.270554 57.883511,71.753960 57.889114,71.230568 
	C57.970573,63.622211 58.024563,56.011990 57.898914,48.405293 
	C57.885559,47.596725 56.701180,46.807503 56.060051,46.009304 
	C46.186672,39.780807 44.022999,35.419781 45.737625,25.203821 
	C46.517849,20.555149 52.111012,15.120678 57.274311,14.235670 
	C69.690826,12.107437 79.108162,19.173018 78.151718,31.875336 
	C77.711838,37.717327 73.243080,40.448776 69.860168,43.660648 
	C67.697456,45.714024 67.112221,47.331310 67.148582,49.858410 
	C67.210304,54.148994 67.165558,58.441109 67.165558,63.457226 
	C68.956024,62.634911 70.208389,61.989502 71.512016,61.473602 
	C76.241058,59.602127 81.110062,58.034916 85.700836,55.874001 
	C94.583221,51.692993 104.076256,50.389317 114.457169,49.592697 
	C118.054169,49.624184 120.855438,48.980427 123.620918,49.108608 
	C133.989899,49.589218 144.346085,50.341713 154.711197,50.917957 
	C155.438629,50.958401 156.199646,50.394642 156.945053,50.111839 
	C168.044495,50.895588 178.824768,52.854797 188.928635,57.886585 
	C193.257019,60.042152 197.899719,61.566624 202.916168,63.585770 
	C202.916168,57.346779 203.064743,51.278381 202.779892,45.230392 
	C202.728317,44.135239 201.066635,42.845898 199.862381,42.121426 
	C194.414948,38.844238 191.381531,33.009888 193.138199,25.928881 
	C194.427856,20.730431 197.189545,16.705124 203.379272,14.377401 
	C211.088425,11.478265 215.638321,14.625555 220.904297,19.564743 
	C221.542160,20.397850 221.864151,20.677624 222.186157,20.957399 
	C222.186157,20.957399 222.068268,20.941488 222.072937,21.225119 
	C222.467529,21.981312 222.857452,22.453875 223.247391,22.926437 
	C223.247391,22.926437 223.129745,22.964544 223.078476,23.379246 
	C223.055084,27.915054 223.082947,32.036160 223.110825,36.157265 
	C223.110825,36.157265 223.097992,36.037247 222.849792,36.169479 
	C222.413773,36.913055 222.225983,37.524391 222.038177,38.135735 
	C219.961578,40.096268 217.884979,42.056801 215.067062,44.129230 
	C213.886276,45.702053 213.110962,47.152863 213.066574,48.625698 
	C212.891357,54.440636 212.945480,60.262486 212.655075,66.321991 
	C212.566528,68.345688 212.737442,70.129166 212.949249,72.172836 
	C213.415024,72.521927 213.839905,72.610825 214.264801,72.699722 
	C216.547195,75.702377 218.661179,78.852844 221.142990,81.680496 
	C229.185532,90.843864 232.007889,102.286011 235.099670,112.705940 
	C240.939911,116.879601 249.733429,115.918198 250.993164,125.970482 
	C250.996582,137.697433 250.937363,148.569595 251.088882,159.438828 
	C251.109985,160.952393 252.168686,162.451508 252.747055,163.957306 
	C251.252228,174.402023 246.505463,178.679443 235.463287,179.407410 
	C232.828629,201.706329 220.342453,217.844894 202.221375,231.154419 
	C201.365967,236.897522 201.027863,242.319992 201.063995,247.739990 
	C201.097672,252.792786 201.529358,257.842896 201.785843,262.894196 
	C199.652023,267.681427 196.037506,266.829773 192.839355,264.689606 
	C184.697510,259.241180 176.781219,253.455002 168.790878,247.781158 
	C165.685776,245.576294 162.624283,243.310059 159.104706,240.511261 
	C157.120605,239.635788 155.577225,239.063461 154.028427,239.048386 
	C145.197525,238.962418 136.363098,239.135468 127.534096,238.980164 
	C115.573601,238.769775 103.617126,238.335052 91.658485,238.012680 
	C88.461555,237.926498 85.263046,237.899017 82.065262,237.844574 
M74.014748,218.590546 
	C74.332893,218.757889 74.651031,218.925232 74.982994,219.015335 
	C74.982994,219.015335 74.916138,219.056412 75.260498,219.558273 
	C75.829597,219.740189 76.398705,219.922104 76.973198,220.017059 
	C76.973198,220.017059 76.913528,220.080551 77.246315,220.665298 
	C78.486496,221.146881 79.726677,221.628464 80.998634,222.036774 
	C80.998634,222.036774 80.922462,222.060776 81.391655,222.602722 
	C84.552094,223.583618 87.712532,224.564514 91.317604,226.255707 
	C94.692505,226.835571 98.064171,227.894226 101.442833,227.917053 
	C122.323380,228.058044 143.205505,227.965866 164.014481,227.975433 
	C164.014481,227.975433 164.030884,227.900650 164.123260,228.246262 
	C164.384552,228.235855 164.645844,228.225449 165.549545,228.438049 
	C171.249008,232.317947 176.948471,236.197830 182.910660,240.718002 
	C184.543045,241.792953 186.175430,242.867905 188.422684,243.919327 
	C188.811218,243.560440 189.199753,243.201553 189.588287,242.842651 
	C189.103134,242.567474 188.617966,242.292297 187.945541,241.535614 
	C187.899078,241.369781 187.852600,241.203949 187.938187,240.278290 
	C188.007004,239.510696 188.075836,238.743103 188.908249,237.782211 
	C189.240784,233.151321 189.573318,228.520416 189.965393,223.982040 
	C189.965393,223.982040 189.868790,223.929413 190.233688,223.853500 
	C190.327286,223.776001 190.512619,223.654587 190.499878,223.627975 
	C190.402359,223.424240 190.266281,223.238968 190.404114,222.439651 
	C192.365540,220.921707 194.519073,219.594849 196.253525,217.851120 
	C202.216095,211.856689 208.076935,205.758957 213.890839,199.619431 
	C219.413849,193.787048 219.682373,185.916672 222.210754,179.129730 
	C222.178589,177.441223 222.146408,175.752701 222.024521,173.126831 
	C221.963943,168.391113 221.903366,163.655396 221.917847,158.212494 
	C221.893753,157.502716 221.869659,156.792938 221.958817,155.295593 
	C221.921387,154.502869 221.883957,153.710144 221.921005,152.153458 
	C221.896347,151.131241 221.871674,150.109024 221.960861,148.209961 
	C221.922546,146.443909 221.884247,144.677856 221.921371,141.991699 
	C221.897354,135.025391 221.873337,128.059067 221.961594,120.373489 
	C222.007889,119.890663 222.054199,119.407829 222.642685,118.394035 
	C222.943451,113.087898 222.600311,107.976982 217.927277,103.435448 
	C215.513657,99.209084 213.576736,94.604141 210.584930,90.836952 
	C204.758270,83.500175 197.996124,77.099602 188.994568,73.567268 
	C186.595779,72.625946 184.393021,71.185104 181.764679,69.314087 
	C177.513733,68.175919 173.262787,67.037743 169.013885,65.975250 
	C169.013885,65.975250 169.080353,65.939018 168.684143,65.377296 
	C167.786301,65.246803 166.888443,65.116302 165.430267,64.698013 
	C164.654434,64.415688 163.878601,64.133362 162.597824,63.265057 
	C161.052124,63.245457 159.506439,63.225861 157.992844,63.000820 
	C157.992844,63.000820 158.034027,62.797009 157.811676,62.090088 
	C155.499481,62.112148 153.187286,62.134209 150.229416,62.060265 
	C149.803329,61.975117 149.377258,61.889969 148.755478,61.046837 
	C141.499023,60.695786 134.245117,60.246773 126.984436,60.057320 
	C124.978722,60.004986 122.952843,60.725533 120.349586,61.045273 
	C119.864235,61.306698 119.378876,61.568119 118.087173,61.939243 
	C111.401329,63.432774 104.707664,64.892387 98.032677,66.432968 
	C94.225105,67.311752 89.984955,67.529922 86.744286,69.423050 
	C77.147774,75.029152 67.365601,80.393448 60.475761,89.777885 
	C54.596161,97.786308 50.335747,106.221542 49.028976,116.596069 
	C49.028976,116.596069 48.800957,117.034569 48.044060,117.250603 
	C47.699409,118.111862 47.056984,118.972092 47.054028,119.834526 
	C46.993378,137.524918 46.977062,155.215729 47.077251,172.905731 
	C47.083027,173.926041 48.154835,174.940338 48.966957,176.662674 
	C49.030968,177.403336 49.094978,178.143997 48.600189,179.268799 
	C48.783318,180.218002 48.966442,181.167221 49.131313,182.850082 
	C50.480022,186.530090 51.616707,190.305405 53.219337,193.871292 
	C57.173073,202.668411 62.237728,210.666321 70.934319,216.548126 
	C71.281982,216.728333 71.629639,216.908539 71.977592,217.013367 
	C71.977592,217.013367 71.915405,217.055969 72.253143,217.569351 
	C72.822166,217.743362 73.391190,217.917358 73.998001,218.022858 
	C73.998001,218.022858 73.924187,218.048813 74.014748,218.590546 
z"/>
<path fill="#165487" opacity="1.000000" stroke="none" 
	d="
M82.454170,237.946838 
	C85.263046,237.899017 88.461555,237.926498 91.658485,238.012680 
	C103.617126,238.335052 115.573601,238.769775 127.534096,238.980164 
	C136.363098,239.135468 145.197525,238.962418 154.028427,239.048386 
	C155.577225,239.063461 157.120605,239.635788 158.793610,240.311722 
	C143.273285,240.680786 127.617378,241.003204 111.981514,240.581757 
	C102.253014,240.319534 92.554855,238.931717 82.454170,237.946838 
z"/>
<path fill="#336A95" opacity="1.000000" stroke="none" 
	d="
M21.638838,123.065430 
	C19.290068,138.612671 20.129108,154.381088 20.990910,170.618469 
	C20.197880,168.729599 18.785633,166.380539 18.756044,164.014221 
	C18.607723,152.152405 18.725056,140.283737 19.012800,128.423874 
	C19.055353,126.669960 20.504824,124.950188 21.638838,123.065430 
z"/>
<path fill="#2F6693" opacity="1.000000" stroke="none" 
	d="
M156.733521,49.900848 
	C156.199646,50.394642 155.438629,50.958401 154.711197,50.917957 
	C144.346085,50.341713 133.989899,49.589218 123.620918,49.108608 
	C120.855438,48.980427 118.054169,49.624184 114.810387,49.846508 
	C115.040108,49.193832 115.697495,48.140331 116.422081,48.091881 
	C129.840408,47.194695 143.285904,45.956547 156.733521,49.900848 
z"/>
<path fill="#235E8E" opacity="1.000000" stroke="none" 
	d="
M252.835999,163.498932 
	C252.168686,162.451508 251.109985,160.952393 251.088882,159.438828 
	C250.937363,148.569595 250.996582,137.697433 251.011536,126.349541 
	C251.595917,128.334732 252.582581,130.785904 252.644699,133.260300 
	C252.893860,143.183151 252.856430,153.113190 252.835999,163.498932 
z"/>
<path fill="#2F6693" opacity="1.000000" stroke="none" 
	d="
M56.040024,46.476944 
	C56.701180,46.807503 57.885559,47.596725 57.898914,48.405293 
	C58.024563,56.011990 57.970573,63.622211 57.889114,71.230568 
	C57.883511,71.753960 57.241447,72.270554 56.508179,72.886940 
	C56.087322,64.303909 56.053661,55.624249 56.040024,46.476944 
z"/>
<path fill="#165487" opacity="1.000000" stroke="none" 
	d="
M214.335632,72.255997 
	C213.839905,72.610825 213.415024,72.521927 212.969833,71.758469 
	C212.937866,69.416534 212.926193,67.749153 212.914520,66.081772 
	C212.945480,60.262486 212.891357,54.440636 213.066574,48.625698 
	C213.110962,47.152863 213.886276,45.702053 214.722443,44.131966 
	C214.881577,53.285965 214.644012,62.549122 214.335632,72.255997 
z"/>
<path fill="#054178" opacity="1.000000" stroke="none" 
	d="
M201.888535,262.442352 
	C201.529358,257.842896 201.097672,252.792786 201.063995,247.739990 
	C201.027863,242.319992 201.365967,236.897522 201.902664,231.248932 
	C202.173447,241.344681 202.082336,251.667587 201.888535,262.442352 
z"/>
<path fill="#29618A" opacity="1.000000" stroke="none" 
	d="
M223.415131,35.917835 
	C223.082947,32.036160 223.055084,27.915054 223.074493,23.317547 
	C225.934448,26.998558 225.239685,31.319265 223.415131,35.917835 
z"/>
<path fill="#29618A" opacity="1.000000" stroke="none" 
	d="
M223.201279,22.615305 
	C222.857452,22.453875 222.467529,21.981312 222.093781,21.169415 
	C222.458359,21.321444 222.806763,21.812809 223.201279,22.615305 
z"/>
<path fill="#29618A" opacity="1.000000" stroke="none" 
	d="
M222.303619,37.966675 
	C222.225983,37.524391 222.413773,36.913055 222.909607,36.177345 
	C223.001465,36.634525 222.785263,37.216076 222.303619,37.966675 
z"/>
<path fill="#2F6693" opacity="1.000000" stroke="none" 
	d="
M52.708157,76.914299 
	C52.712570,77.277260 52.491409,77.767197 52.109016,78.079102 
	C52.126049,77.614471 52.304317,77.327873 52.708157,76.914299 
z"/>
<path fill="#2F6693" opacity="1.000000" stroke="none" 
	d="
M55.660950,73.858078 
	C55.708241,74.061333 55.489868,74.393967 54.980873,74.823967 
	C54.925266,74.610039 55.160275,74.298744 55.660950,73.858078 
z"/>
<path fill="#29618A" opacity="1.000000" stroke="none" 
	d="
M222.104050,20.638676 
	C221.864151,20.677624 221.542160,20.397850 221.145996,19.792116 
	C221.388550,19.750755 221.705246,20.035355 222.104050,20.638676 
z"/>
<path fill="#94BCEC" opacity="1.000000" stroke="none" 
	d="
M221.842804,158.919678 
	C221.903366,163.655396 221.963943,168.391113 222.021759,173.985672 
	C221.931961,176.147354 221.844910,177.450180 221.757843,178.753021 
	C219.682373,185.916672 219.413849,193.787048 213.890839,199.619431 
	C208.076935,205.758957 202.216095,211.856689 196.253525,217.851120 
	C194.519073,219.594849 192.365540,220.921707 190.161835,222.950821 
	C189.919556,223.461990 189.868790,223.929413 189.868790,223.929413 
	C189.868790,223.929413 189.965393,223.982040 189.723907,224.012482 
	C189.181473,224.376389 188.880524,224.709854 188.253967,225.137115 
	C187.918793,226.136734 187.909241,227.042557 187.959183,228.402069 
	C188.060669,231.895660 188.102676,234.935593 188.144669,237.975510 
	C188.075836,238.743103 188.007004,239.510696 187.500687,240.636871 
	C185.591431,240.689560 184.119690,240.383636 182.647934,240.077728 
	C176.948471,236.197830 171.249008,232.317947 165.022491,228.211212 
	C164.495422,227.984390 164.030884,227.900650 164.030884,227.900650 
	C164.030884,227.900650 164.014481,227.975433 163.919708,227.738007 
	C163.211426,227.194916 162.597900,226.889221 161.789597,226.183197 
	C159.836304,225.523849 158.078354,225.044205 156.319168,225.039597 
	C136.550903,224.987686 116.782455,225.008835 96.646225,224.848419 
	C91.159744,223.811234 86.041107,222.936005 80.922462,222.060776 
	C80.922462,222.060776 80.998634,222.036774 80.848618,221.742676 
	C79.436913,220.992554 78.175224,220.536545 76.913528,220.080536 
	C76.913528,220.080551 76.973198,220.017059 76.817307,219.788269 
	C76.079651,219.391785 75.497894,219.224106 74.916138,219.056412 
	C74.916138,219.056412 74.982994,219.015335 74.877457,218.813507 
	C74.489334,218.424057 74.206757,218.236435 73.924187,218.048813 
	C73.924187,218.048813 73.998001,218.022858 73.824982,217.788025 
	C73.073105,217.387466 72.494255,217.221710 71.915405,217.055969 
	C71.915405,217.055969 71.977592,217.013367 71.829376,216.782074 
	C71.309700,216.392853 70.938232,216.234909 70.566765,216.076981 
	C62.237728,210.666321 57.173073,202.668411 53.219337,193.871292 
	C51.616707,190.305405 50.480022,186.530090 49.401222,182.272125 
	C49.776337,180.815628 49.881538,179.937088 49.985603,178.586243 
	C49.985641,159.200394 50.007858,140.286804 49.953033,121.373451 
	C49.947960,119.624146 49.452888,117.876251 49.185333,116.127701 
	C50.335747,106.221542 54.596161,97.786308 60.475761,89.777885 
	C67.365601,80.393448 77.147774,75.029152 86.744286,69.423050 
	C89.984955,67.529922 94.225105,67.311752 98.032677,66.432968 
	C104.707664,64.892387 111.401329,63.432774 118.776062,62.209831 
	C129.994080,62.611240 140.523209,62.742062 151.381592,62.917725 
	C152.150024,63.017216 152.589188,63.071865 153.111359,63.271767 
	C153.194336,63.417019 153.631317,63.513187 153.631317,63.513187 
	C153.631317,63.513187 153.961990,63.163521 154.368134,63.113281 
	C155.860855,62.974365 156.947433,62.885685 158.034027,62.797005 
	C158.034027,62.797009 157.992844,63.000820 158.075821,63.442234 
	C159.806793,63.872776 161.454773,63.861904 163.102768,63.851036 
	C163.878601,64.133362 164.654434,64.415688 165.919724,65.113876 
	C167.299576,65.666161 168.189957,65.802589 169.080353,65.939011 
	C169.080353,65.939018 169.013885,65.975250 169.222351,66.235390 
	C173.653946,67.654884 177.877106,68.814240 182.100250,69.973602 
	C184.393021,71.185104 186.595779,72.625946 188.994568,73.567268 
	C197.996124,77.099602 204.758270,83.500175 210.584930,90.836952 
	C213.576736,94.604141 215.513657,99.209084 218.118591,104.119820 
	C218.879684,107.510910 219.449478,110.217621 220.010925,113.333290 
	C220.602402,115.508759 221.202225,117.275269 221.869263,118.993690 
	C221.936493,118.945602 222.100510,118.925003 222.100510,118.925003 
	C222.054199,119.407829 222.007889,119.890663 221.635681,121.035461 
	C221.488495,128.768890 221.667206,135.840347 221.845932,142.911804 
	C221.884247,144.677856 221.922546,146.443909 221.669037,148.854752 
	C221.533646,150.638840 221.690094,151.778122 221.846527,152.917419 
	C221.883957,153.710144 221.921387,154.502869 221.678970,155.865601 
	C221.547012,157.263626 221.694916,158.091660 221.842804,158.919678 
M163.405609,121.010056 
	C163.239136,121.326630 163.072662,121.643204 162.993103,121.964828 
	C162.993103,121.964828 162.923996,121.911880 162.314926,122.270447 
	C157.755585,129.026184 158.249390,135.621445 162.967773,142.000092 
	C162.967773,142.000092 162.902161,142.056458 163.076279,142.674042 
	C164.042084,143.390991 165.007889,144.107925 166.497787,145.077621 
	C166.714233,145.391983 166.930679,145.706360 167.401779,146.677643 
	C172.787979,150.504333 178.003677,150.160782 183.000549,146.009064 
	C183.000549,146.009064 183.035278,146.070023 183.660645,145.901642 
	C184.482407,144.965469 185.304169,144.029282 186.090927,143.029526 
	C186.090927,143.029526 186.045471,143.086105 186.538391,142.930603 
	C186.672409,142.628235 186.806442,142.325867 187.245728,141.376968 
	C192.245605,132.498123 190.588074,121.833443 183.461975,117.031982 
	C178.768112,113.869347 171.635971,114.484947 165.441788,118.597656 
	C165.258606,119.043625 165.075439,119.489594 164.931625,119.998383 
	C164.931625,119.998383 164.947510,119.925980 164.380051,119.971313 
	C164.227036,120.297966 164.074020,120.624619 163.990067,120.995834 
	C163.990067,120.995834 163.951050,120.923515 163.405609,121.010056 
M106.948753,184.629822 
	C107.281075,185.113953 107.613403,185.598068 107.968178,186.008087 
	C107.968178,186.008087 107.893753,186.029495 107.955284,186.765457 
	C109.952217,188.703979 111.949150,190.642502 114.260590,193.170547 
	C117.077423,197.504486 122.094749,196.385376 126.853233,198.074799 
	C132.624863,198.047134 138.484985,198.617737 144.137009,197.781586 
	C147.908096,197.223709 151.382797,194.662308 155.755142,192.971039 
	C162.613647,192.376831 163.035873,186.375046 165.075546,181.786865 
	C166.572235,178.420090 165.811020,175.486237 161.977905,173.073380 
	C144.695663,173.065002 127.413109,173.011017 110.131752,173.130844 
	C108.677185,173.140930 107.230698,174.317230 105.227135,175.476807 
	C105.801476,178.343628 106.375816,181.210464 106.973946,184.007080 
	C106.973946,184.007080 106.900337,184.015823 106.948753,184.629822 
M108.180199,121.497711 
	C107.839615,120.987488 107.499031,120.477264 106.690239,119.686897 
	C106.471527,119.400085 106.252815,119.113274 105.911064,118.144264 
	C100.972229,112.093590 90.476860,111.028099 85.716965,118.695686 
	C78.571213,127.298195 77.355919,133.652771 83.768425,142.564926 
	C88.913361,149.715408 99.524963,152.501343 106.415100,143.940140 
	C111.811562,137.234879 112.784691,129.683044 108.180199,121.497711 
z"/>
<path fill="#2F648C" opacity="1.000000" stroke="none" 
	d="
M161.984375,226.583542 
	C162.597900,226.889221 163.211426,227.194916 163.956024,227.725876 
	C143.205505,227.965866 122.323380,228.058044 101.442833,227.917053 
	C98.064171,227.894226 94.692505,226.835571 91.538269,225.960251 
	C93.513214,225.734985 95.267494,225.805161 97.484192,225.948029 
	C108.210365,226.077225 118.474373,226.106415 128.737823,226.197586 
	C139.820282,226.296021 150.902206,226.452423 161.984375,226.583542 
z"/>
<path fill="#29618A" opacity="1.000000" stroke="none" 
	d="
M48.730526,175.957428 
	C48.154835,174.940338 47.083027,173.926041 47.077251,172.905731 
	C46.977062,155.215729 46.993378,137.524918 47.054028,119.834526 
	C47.056984,118.972092 47.699409,118.111862 48.445911,117.608162 
	C48.808681,137.296295 48.769604,156.626862 48.730526,175.957428 
z"/>
<path fill="#B4D8FF" opacity="1.000000" stroke="none" 
	d="
M48.848740,176.310059 
	C48.769604,156.626862 48.808681,137.296295 48.824360,117.500145 
	C48.800957,117.034569 49.028976,116.596069 49.107155,116.361885 
	C49.452888,117.876251 49.947960,119.624146 49.953033,121.373451 
	C50.007858,140.286804 49.985641,159.200394 49.777054,178.550446 
	C49.569649,178.986984 49.158989,178.884659 49.158989,178.884659 
	C49.094978,178.143997 49.030968,177.403336 48.848740,176.310059 
z"/>
<path fill="#99C2EF" opacity="1.000000" stroke="none" 
	d="
M151.052338,62.872883 
	C140.523209,62.742062 129.994080,62.611240 119.179230,62.154980 
	C119.378876,61.568119 119.864235,61.306698 120.897842,61.364822 
	C130.614456,61.724518 139.782806,61.764668 148.951172,61.804817 
	C149.377258,61.889969 149.803329,61.975117 150.602692,62.285873 
	C150.975967,62.511478 151.052338,62.872883 151.052338,62.872883 
z"/>
<path fill="#2F648C" opacity="1.000000" stroke="none" 
	d="
M148.853333,61.425827 
	C139.782806,61.764668 130.614456,61.724518 121.191147,61.387917 
	C122.952843,60.725533 124.978722,60.004986 126.984436,60.057320 
	C134.245117,60.246773 141.499023,60.695786 148.853333,61.425827 
z"/>
<path fill="#32668E" opacity="1.000000" stroke="none" 
	d="
M220.019272,112.924339 
	C219.449478,110.217621 218.879684,107.510910 218.304413,104.435120 
	C222.600311,107.976982 222.943451,113.087898 222.371597,118.659515 
	C222.100510,118.925003 221.936493,118.945602 221.894135,118.620712 
	C221.240936,116.505325 220.630112,114.714828 220.019272,112.924339 
z"/>
<path fill="#396C94" opacity="1.000000" stroke="none" 
	d="
M188.579559,225.043304 
	C188.880524,224.709854 189.181473,224.376389 189.694153,223.966232 
	C189.573318,228.520416 189.240784,233.151321 188.526459,237.878860 
	C188.102676,234.935593 188.060669,231.895660 188.031494,228.036896 
	C188.222717,226.493134 188.401138,225.768204 188.579559,225.043304 
z"/>
<path fill="#9EC5F4" opacity="1.000000" stroke="none" 
	d="
M97.021774,225.875336 
	C95.267494,225.805161 93.513214,225.734985 91.315948,225.605103 
	C87.712532,224.564514 84.552094,223.583618 81.157059,222.331757 
	C86.041107,222.936005 91.159744,223.811234 96.644653,225.064621 
	C97.010910,225.442780 97.021774,225.875336 97.021774,225.875336 
z"/>
<path fill="#A3CAF7" opacity="1.000000" stroke="none" 
	d="
M181.932465,69.643845 
	C177.877106,68.814240 173.653946,67.654884 169.221313,66.197556 
	C173.262787,67.037743 177.513733,68.175919 181.932465,69.643845 
z"/>
<path fill="#A6CDFA" opacity="1.000000" stroke="none" 
	d="
M221.883652,142.451752 
	C221.667206,135.840347 221.488495,128.768890 221.579544,121.395096 
	C221.873337,128.059067 221.897354,135.025391 221.883652,142.451752 
z"/>
<path fill="#2F648C" opacity="1.000000" stroke="none" 
	d="
M151.381592,62.917725 
	C151.052338,62.872883 150.975967,62.511478 150.925537,62.333874 
	C153.187286,62.134209 155.499481,62.112148 157.922852,62.443546 
	C156.947433,62.885685 155.860855,62.974365 154.136383,63.062607 
	C153.498505,63.062164 153.028366,63.126514 153.028366,63.126514 
	C152.589188,63.071865 152.150024,63.017216 151.381592,62.917725 
z"/>
<path fill="#A6CDFA" opacity="1.000000" stroke="none" 
	d="
M182.779297,240.397858 
	C184.119690,240.383636 185.591431,240.689560 187.434662,241.016800 
	C187.852600,241.203949 187.899078,241.369781 187.995331,242.099380 
	C187.966019,243.089722 187.886917,243.516281 187.807816,243.942856 
	C186.175430,242.867905 184.543045,241.792953 182.779297,240.397858 
z"/>
<path fill="#A3CAF7" opacity="1.000000" stroke="none" 
	d="
M162.850296,63.558044 
	C161.454773,63.861904 159.806793,63.872776 158.059769,63.544956 
	C159.506439,63.225861 161.052124,63.245457 162.850296,63.558044 
z"/>
<path fill="#5682A5" opacity="1.000000" stroke="none" 
	d="
M212.655060,66.321991 
	C212.926193,67.749153 212.937866,69.416534 212.928955,71.498283 
	C212.737442,70.129166 212.566528,68.345688 212.655060,66.321991 
z"/>
<path fill="#9EC5F4" opacity="1.000000" stroke="none" 
	d="
M77.079926,220.372925 
	C78.175224,220.536545 79.436913,220.992554 80.832733,221.779312 
	C79.726677,221.628464 78.486496,221.146881 77.079926,220.372925 
z"/>
<path fill="#29618A" opacity="1.000000" stroke="none" 
	d="
M48.879589,179.076721 
	C49.158989,178.884659 49.569649,178.986984 49.778198,179.022766 
	C49.881538,179.937088 49.776337,180.815628 49.410351,181.905289 
	C48.966442,181.167221 48.783318,180.218002 48.879589,179.076721 
z"/>
<path fill="#32668E" opacity="1.000000" stroke="none" 
	d="
M221.984314,178.941376 
	C221.844910,177.450180 221.931961,176.147354 222.066620,174.454346 
	C222.146408,175.752701 222.178589,177.441223 221.984314,178.941376 
z"/>
<path fill="#396C94" opacity="1.000000" stroke="none" 
	d="
M188.115250,243.931091 
	C187.886917,243.516281 187.966019,243.089722 188.088959,242.340134 
	C188.617966,242.292297 189.103134,242.567474 189.588287,242.842651 
	C189.199753,243.201553 188.811218,243.560440 188.115250,243.931091 
z"/>
<path fill="#A6CDFA" opacity="1.000000" stroke="none" 
	d="
M221.883774,152.535431 
	C221.690094,151.778122 221.533646,150.638840 221.612091,149.293182 
	C221.871674,150.109024 221.896347,151.131241 221.883774,152.535431 
z"/>
<path fill="#A6CDFA" opacity="1.000000" stroke="none" 
	d="
M221.880325,158.566086 
	C221.694916,158.091660 221.547012,157.263626 221.622345,156.259384 
	C221.869659,156.792938 221.893753,157.502716 221.880325,158.566086 
z"/>
<path fill="#A3CAF7" opacity="1.000000" stroke="none" 
	d="
M168.882248,65.658157 
	C168.189957,65.802589 167.299576,65.666161 166.199890,65.257767 
	C166.888443,65.116302 167.786301,65.246803 168.882248,65.658157 
z"/>
<path fill="#9EC5F4" opacity="1.000000" stroke="none" 
	d="
M75.088318,219.307343 
	C75.497894,219.224106 76.079651,219.391785 76.814606,219.831741 
	C76.398705,219.922104 75.829597,219.740189 75.088318,219.307343 
z"/>
<path fill="#9EC5F4" opacity="1.000000" stroke="none" 
	d="
M72.084274,217.312653 
	C72.494255,217.221710 73.073105,217.387466 73.806084,217.822296 
	C73.391190,217.917358 72.822166,217.743362 72.084274,217.312653 
z"/>
<path fill="#396C94" opacity="1.000000" stroke="none" 
	d="
M190.051239,223.891449 
	C189.868790,223.929413 189.919556,223.461990 190.030869,223.254974 
	C190.266281,223.238968 190.402359,223.424240 190.499878,223.627975 
	C190.512619,223.654587 190.327286,223.776001 190.051239,223.891449 
z"/>
<path fill="#9EC5F4" opacity="1.000000" stroke="none" 
	d="
M73.969467,218.319672 
	C74.206757,218.236435 74.489334,218.424057 74.870544,218.852112 
	C74.651031,218.925232 74.332893,218.757889 73.969467,218.319672 
z"/>
<path fill="#2F648C" opacity="1.000000" stroke="none" 
	d="
M164.077072,228.073456 
	C164.030884,227.900650 164.495422,227.984390 164.701279,228.099701 
	C164.645844,228.225449 164.384552,228.235855 164.077072,228.073456 
z"/>
<path fill="#9EC5F4" opacity="1.000000" stroke="none" 
	d="
M70.750542,216.312561 
	C70.938232,216.234909 71.309700,216.392853 71.829231,216.819763 
	C71.629639,216.908539 71.281982,216.728333 70.750542,216.312561 
z"/>
<path fill="#42749E" opacity="1.000000" stroke="none" 
	d="
M162.894302,173.166763 
	C165.811020,175.486237 166.572235,178.420090 165.075546,181.786865 
	C163.035873,186.375046 162.613647,192.376831 155.002930,193.027130 
	C147.887863,196.097870 141.227142,197.410934 134.159042,197.070465 
	C131.472534,196.941040 128.747269,197.615646 126.039665,197.923798 
	C122.094749,196.385376 117.077423,197.504486 114.033310,192.514191 
	C111.835274,189.915039 109.864510,187.972275 107.893753,186.029495 
	C107.893753,186.029495 107.968178,186.008087 107.951462,185.729843 
	C107.589935,184.973007 107.245140,184.494415 106.900337,184.015823 
	C106.900337,184.015823 106.973946,184.007080 106.977821,183.586548 
	C106.988976,180.444427 106.996262,177.722824 107.296814,174.703735 
	C109.389175,174.272324 111.188026,174.026108 112.987404,174.022217 
	C127.883636,173.989975 142.780090,174.029907 157.676102,173.964859 
	C159.416641,173.957260 161.154953,173.445038 162.894302,173.166763 
z"/>
<path fill="#43759E" opacity="1.000000" stroke="none" 
	d="
M106.034103,118.826462 
	C106.252815,119.113274 106.471527,119.400085 106.964302,120.113220 
	C107.495384,121.018967 107.752411,121.498398 108.009438,121.977821 
	C112.784691,129.683044 111.811562,137.234879 106.415100,143.940140 
	C99.524963,152.501343 88.913361,149.715408 83.768425,142.564926 
	C77.355919,133.652771 78.571213,127.298195 86.259888,118.334755 
	C93.374634,114.617775 99.747444,115.750572 106.034103,118.826462 
z"/>
<path fill="#43759E" opacity="1.000000" stroke="none" 
	d="
M165.947662,118.543716 
	C171.635971,114.484947 178.768112,113.869347 183.461975,117.031982 
	C190.588074,121.833443 192.245605,132.498123 186.879517,141.814621 
	C186.260056,142.475586 186.104111,142.753540 186.045471,143.086105 
	C186.045471,143.086105 186.090927,143.029526 185.752380,143.058990 
	C184.621002,144.082321 183.828140,145.076172 183.035278,146.070023 
	C183.035278,146.070023 183.000549,146.009064 182.603043,146.010590 
	C177.186066,146.014984 172.166595,146.017853 167.147125,146.020721 
	C166.930679,145.706360 166.714233,145.391983 166.197937,144.622574 
	C164.899460,143.463837 163.900803,142.760147 162.902161,142.056458 
	C162.902161,142.056458 162.967773,142.000092 162.969742,141.634735 
	C160.314529,134.823395 160.612213,128.370117 162.923996,121.911880 
	C162.923996,121.911880 162.993103,121.964828 163.190002,121.865654 
	C163.574951,121.485489 163.763000,121.204498 163.951050,120.923508 
	C163.951050,120.923515 163.990067,120.995834 164.191620,120.876816 
	C164.577972,120.480530 164.762741,120.203255 164.947510,119.925980 
	C164.947510,119.925980 164.931625,119.998383 165.139938,119.884552 
	C165.548065,119.361725 165.747864,118.952721 165.947662,118.543716 
z"/>
<path fill="#B4D8FF" opacity="1.000000" stroke="none" 
	d="
M97.484192,225.948029 
	C97.021774,225.875336 97.010910,225.442780 97.012482,225.226562 
	C116.782455,225.008835 136.550903,224.987686 156.319168,225.039597 
	C158.078354,225.044205 159.836304,225.523849 161.789597,226.183197 
	C150.902206,226.452423 139.820282,226.296021 128.737823,226.197586 
	C118.474373,226.106415 108.210365,226.077225 97.484192,225.948029 
z"/>
<path fill="#29618A" opacity="1.000000" stroke="none" 
	d="
M162.436096,173.120071 
	C161.154953,173.445038 159.416641,173.957260 157.676102,173.964859 
	C142.780090,174.029907 127.883636,173.989975 112.987404,174.022217 
	C111.188026,174.026108 109.389175,174.272324 106.990891,174.694458 
	C106.187950,174.972382 105.984200,174.962051 105.780449,174.951706 
	C107.230698,174.317230 108.677185,173.140930 110.131752,173.130844 
	C127.413109,173.011017 144.695663,173.065002 162.436096,173.120071 
z"/>
<path fill="#396C94" opacity="1.000000" stroke="none" 
	d="
M126.446449,197.999298 
	C128.747269,197.615646 131.472534,196.941040 134.159042,197.070465 
	C141.227142,197.410934 147.887863,196.097870 154.620438,193.040375 
	C151.382797,194.662308 147.908096,197.223709 144.137009,197.781586 
	C138.484985,198.617737 132.624863,198.047134 126.446449,197.999298 
z"/>
<path fill="#9EC5F4" opacity="1.000000" stroke="none" 
	d="
M105.972580,118.485367 
	C99.747444,115.750572 93.374634,114.617775 86.411362,118.025589 
	C90.476860,111.028099 100.972229,112.093590 105.972580,118.485367 
z"/>
<path fill="#396C94" opacity="1.000000" stroke="none" 
	d="
M162.619461,122.091164 
	C160.612213,128.370117 160.314529,134.823395 162.957932,141.676331 
	C158.249390,135.621445 157.755585,129.026184 162.619461,122.091164 
z"/>
<path fill="#396C94" opacity="1.000000" stroke="none" 
	d="
M167.274445,146.349182 
	C172.166595,146.017853 177.186066,146.014984 182.635162,146.024658 
	C178.003677,150.160782 172.787979,150.504333 167.274445,146.349182 
z"/>
<path fill="#32668E" opacity="1.000000" stroke="none" 
	d="
M107.924515,186.397476 
	C109.864510,187.972275 111.835274,189.915039 113.876060,192.219421 
	C111.949150,190.642502 109.952217,188.703979 107.924515,186.397476 
z"/>
<path fill="#32668E" opacity="1.000000" stroke="none" 
	d="
M105.503792,175.214264 
	C105.984200,174.962051 106.187950,174.972382 106.697617,174.991959 
	C106.996262,177.722824 106.988976,180.444427 106.965927,183.621658 
	C106.375816,181.210464 105.801476,178.343628 105.503792,175.214264 
z"/>
<path fill="#A6CDFA" opacity="1.000000" stroke="none" 
	d="
M220.010925,113.333290 
	C220.630112,114.714828 221.240936,116.505325 221.826904,118.668793 
	C221.202225,117.275269 220.602402,115.508759 220.010925,113.333290 
z"/>
<path fill="#396C94" opacity="1.000000" stroke="none" 
	d="
M162.989227,142.365250 
	C163.900803,142.760147 164.899460,143.463837 165.935898,144.496201 
	C165.007889,144.107925 164.042084,143.390991 162.989227,142.365250 
z"/>
<path fill="#396C94" opacity="1.000000" stroke="none" 
	d="
M183.347961,145.985840 
	C183.828140,145.076172 184.621002,144.082321 185.769897,143.090790 
	C185.304169,144.029282 184.482407,144.965469 183.347961,145.985840 
z"/>
<path fill="#A6CDFA" opacity="1.000000" stroke="none" 
	d="
M188.253937,225.137100 
	C188.401138,225.768204 188.222717,226.493134 187.971985,227.583221 
	C187.909241,227.042557 187.918793,226.136734 188.253937,225.137100 
z"/>
<path fill="#9EC5F4" opacity="1.000000" stroke="none" 
	d="
M108.094818,121.737762 
	C107.752411,121.498398 107.495384,121.018967 107.198410,120.253288 
	C107.499031,120.477264 107.839615,120.987488 108.094818,121.737762 
z"/>
<path fill="#32668E" opacity="1.000000" stroke="none" 
	d="
M106.924545,184.322815 
	C107.245140,184.494415 107.589935,184.973007 107.940231,185.766907 
	C107.613403,185.598068 107.281075,185.113953 106.924545,184.322815 
z"/>
<path fill="#396C94" opacity="1.000000" stroke="none" 
	d="
M165.694733,118.570686 
	C165.747864,118.952721 165.548065,119.361725 165.120270,119.853142 
	C165.075439,119.489594 165.258606,119.043625 165.694733,118.570686 
z"/>
<path fill="#396C94" opacity="1.000000" stroke="none" 
	d="
M164.663788,119.948647 
	C164.762741,120.203255 164.577972,120.480530 164.157104,120.854538 
	C164.074020,120.624619 164.227036,120.297966 164.663788,119.948647 
z"/>
<path fill="#396C94" opacity="1.000000" stroke="none" 
	d="
M163.678329,120.966782 
	C163.763000,121.204498 163.574951,121.485489 163.146545,121.863129 
	C163.072662,121.643204 163.239136,121.326630 163.678329,120.966782 
z"/>
<path fill="#99C2EF" opacity="1.000000" stroke="none" 
	d="
M153.111359,63.271767 
	C153.028366,63.126514 153.498505,63.062164 153.730255,63.112843 
	C153.961990,63.163521 153.631317,63.513187 153.631317,63.513187 
	C153.631317,63.513187 153.194336,63.417019 153.111359,63.271767 
z"/>
<path fill="#396C94" opacity="1.000000" stroke="none" 
	d="
M186.291931,143.008362 
	C186.104111,142.753540 186.260056,142.475586 186.726883,142.137878 
	C186.806442,142.325867 186.672409,142.628235 186.291931,143.008362 
z"/>
</svg>